<svg height="330" viewBox="0 0 330 330" width="330" xmlns="http://www.w3.org/2000/svg"><path d="m325.606 304.394-102.277-102.277c16.706-21.256 26.682-48.04 26.682-77.111 0-68.929-56.077-125.006-125.006-125.006-68.928 0-125.005 56.077-125.005 125.005s56.077 125.005 125.005 125.005c29.07 0 55.855-9.975 77.111-26.681l102.278 102.277c2.928 2.93 6.767 4.394 10.606 4.394s7.678-1.464 10.606-4.394c5.858-5.857 5.858-15.355 0-21.212zm-295.606-179.389c0-52.386 42.619-95.005 95.005-95.005s95.006 42.619 95.006 95.005-42.62 95.005-95.006 95.005-95.005-42.619-95.005-95.005z" fill="#6d6e71"/></svg>