<?xml version="1.0" encoding="UTF-8"?>
<svg width="268px" height="268px" viewBox="0 0 268 268" version="1.1" xmlns="http://www.w3.org/2000/svg" xmlns:xlink="http://www.w3.org/1999/xlink">
    <title>Client-Quote-Icon</title>
    <g id="Page-1" stroke="none" stroke-width="1" fill="none" fill-rule="evenodd">
        <g id="Client-Quote-Icon" fill-rule="nonzero">
            <path d="M134,268 C208,268 268,208 268,134 C268,60 208,0 134,0 C60,0 0,60 0,134 C0,208 60,268 134,268" id="Path" fill="#00A69C"></path>
            <g id="Group" transform="translate(42.700000, 53.700000)" fill="#FFFFFF">
                <path d="M62.9,126.4 C39.2,126.4 19.9,109 19.9,87.6 C19.9,70.3 32.4,55.6 49.8,50.6 C50.5,43.9 52.2,37.4 54.7,31.3 C23.9,34.9 1.42108547e-14,58.7 1.42108547e-14,87.5 C1.42108547e-14,103.4 7.2,117.8 18.9,128.1 C30,142 11.3,154.8 9.1,157.3 C8,158.5 9.7,158.8 9.7,158.8 C25,162.1 39.1,152.8 47.1,146.2 C50.3,143.5 58,144.2 58,144.2 L58,144.2 C59.6,144.3 61.2,144.4 62.9,144.4 C81.5,144.4 98.1,137.1 109.6,125.5 C102.3,124 95.4,121.6 89,118.4 C81.7,123.3 72.7,126.4 62.9,126.4 Z" id="Path"></path>
                <path d="M169.7,97.4 C181.4,87.1 188.6,72.7 188.6,56.8 C188.6,25.4 160.5,1.42108547e-14 125.7,1.42108547e-14 C91,1.42108547e-14 62.8,25.4 62.8,56.8 C62.8,88.2 90.9,113.6 125.7,113.6 C127.3,113.6 129,113.5 130.6,113.4 L130.6,113.4 C130.6,113.4 138.3,112.7 141.5,115.4 C149.5,122.1 163.6,131.3 178.9,128 C178.9,128 180.6,127.7 179.5,126.5 C177.3,124.1 158.6,111.3 169.7,97.4 Z" id="Path"></path>
            </g>
        </g>
    </g>
</svg>